<svg width="25" height="25" viewBox="0 0 38 33" fill="none" xmlns="http://www.w3.org/2000/svg">
<path d="M36.4167 3.66667V29.1188L34.8333 29.3333V0C28.6663 0.218167 22.9504 1.397 18.9968 4.246C15.0448 1.397 9.33533 0.218167 3.16667 0V29.3333L1.58333 29.1188V3.66667H0V31.1667H14.3403C16.682 31.1667 16.9385 33 18.9968 33C21.0615 33 21.3101 31.1667 23.655 31.1667H38V3.66667H36.4167ZM17.4167 28.6825C14.3355 27.2672 10.8664 26.356 6.33333 25.9618V3.86833C10.0573 4.2295 14.2437 5.10583 17.4167 7.392V28.6825ZM31.6667 25.9618C27.1336 26.356 23.6645 27.2672 20.5833 28.6825V7.392C23.7563 5.10583 27.9427 4.2295 31.6667 3.86833V25.9618Z"/>
</svg>
